<?xml version="1.0" encoding="utf-8"?>
<!-- Generator: Adobe Illustrator 16.0.0, SVG Export Plug-In . SVG Version: 6.00 Build 0)  -->
<!DOCTYPE svg PUBLIC "-//W3C//DTD SVG 1.1//EN" "http://www.w3.org/Graphics/SVG/1.1/DTD/svg11.dtd">
<svg version="1.1" id="Layer_1" xmlns="http://www.w3.org/2000/svg" xmlns:xlink="http://www.w3.org/1999/xlink" x="0px" y="0px"
	 width="100px" height="100px" viewBox="0 0 100 100" enable-background="new 0 0 100 100" xml:space="preserve">
<g>
	<g>
		<g>
			<path d="M33.869,11.289c-4.783,0-8.756,3.495-9.529,8.065h-6.597h-7.647C4.53,19.354,0,23.885,0,29.451v13.29
				c0,3.114,2.534,5.645,5.645,5.645c0.87,0,1.683-0.213,2.42-0.565v23.952c0,3.114,2.531,5.647,5.645,5.647
				c1.581,0,3.006-0.659,4.033-1.709c1.026,1.05,2.451,1.709,4.029,1.709c0.87,0,1.687-0.216,2.423-0.568v6.214
				c0,3.11,2.531,5.645,5.645,5.645c1.578,0,3.006-0.657,4.029-1.706c1.03,1.049,2.455,1.706,4.036,1.706
				c3.111,0,5.642-2.534,5.642-5.645h-3.225c0,1.333-1.083,2.42-2.417,2.42c-1.337,0-2.42-1.087-2.42-2.42V61.291h-3.228v21.774
				c0,1.333-1.083,2.42-2.417,2.42c-1.334,0-2.42-1.087-2.42-2.42V54.033v-0.808V38.709h-3.225v14.517v0.808
				c0,1.331-1.086,2.417-2.423,2.417c-1.331,0-2.417-1.086-2.417-2.417V50v-9.258c0-3.791,3.083-6.872,6.871-6.872h15.291v-3.225
				h-7.647h-6.449V28.16c1.715,1.538,3.97,2.485,6.449,2.485c5.341,0,9.678-4.341,9.678-9.679S39.209,11.289,33.869,11.289z
				 M21.771,59.676c0.87,0,1.687-0.214,2.423-0.563v12.66c0,1.337-1.086,2.42-2.423,2.42c-1.331,0-2.417-1.083-2.417-2.42v-12.66
				C20.091,59.462,20.907,59.676,21.771,59.676z M16.13,40.742V50v4.033v17.739c0,1.337-1.086,2.42-2.42,2.42
				c-1.333,0-2.42-1.083-2.42-2.42V42.741v-0.807V27.418H8.065v14.517v0.807c0,1.334-1.086,2.419-2.42,2.419
				c-1.334,0-2.42-1.085-2.42-2.419v-13.29c0-3.789,3.083-6.872,6.871-6.872h14.244c0.31,1.843,1.144,3.506,2.341,4.839h-2.486
				v3.431C19.596,31.793,16.13,35.871,16.13,40.742z M33.869,27.418c-3.554,0-6.449-2.894-6.449-6.451s2.895-6.452,6.449-6.452
				c3.561,0,6.453,2.895,6.453,6.452S37.429,27.418,33.869,27.418z"/>
			<path d="M27.419,9.676C27.419,4.339,23.08,0,17.742,0c-5.338,0-9.677,4.339-9.677,9.676c0,5.338,4.339,9.679,9.677,9.679
				C23.08,19.354,27.419,15.014,27.419,9.676z M17.742,16.128c-3.558,0-6.453-2.894-6.453-6.452c0-3.558,2.895-6.451,6.453-6.451
				s6.452,2.894,6.452,6.451C24.194,13.234,21.3,16.128,17.742,16.128z"/>
			<path d="M91.936,9.676c0-5.337-4.34-9.676-9.678-9.676S72.58,4.339,72.58,9.676c0,5.338,4.34,9.679,9.678,9.679
				S91.936,15.014,91.936,9.676z M82.258,16.128c-3.557,0-6.453-2.894-6.453-6.452c0-3.558,2.896-6.451,6.453-6.451
				c3.559,0,6.453,2.894,6.453,6.451C88.711,13.234,85.816,16.128,82.258,16.128z"/>
			<path d="M89.902,19.354h-7.645H75.66c-0.77-4.57-4.742-8.065-9.531-8.065c-5.336,0-9.678,4.34-9.678,9.678
				s4.342,9.679,9.678,9.679c2.482,0,4.736-0.947,6.451-2.485v2.485h-6.451h-7.645v3.225h15.291c3.787,0,6.871,3.081,6.871,6.872V50
				v4.033c0,1.331-1.088,2.417-2.422,2.417c-1.332,0-2.42-1.086-2.42-2.417v-0.808V38.709H72.58v14.517v0.808v29.032
				c0,1.333-1.086,2.42-2.42,2.42s-2.42-1.087-2.42-2.42V61.291h-3.225v21.774c0,1.333-1.084,2.42-2.416,2.42
				c-1.338,0-2.422-1.087-2.422-2.42h-3.227c0,3.11,2.533,5.645,5.648,5.645c1.578,0,3.006-0.657,4.029-1.706
				c1.029,1.049,2.451,1.706,4.031,1.706c3.115,0,5.645-2.534,5.645-5.645v-6.214c0.738,0.353,1.551,0.568,2.42,0.568
				c1.582,0,3.006-0.659,4.033-1.709c1.027,1.05,2.451,1.709,4.033,1.709c3.111,0,5.645-2.533,5.645-5.647V47.82
				c0.736,0.353,1.553,0.565,2.42,0.565c3.113,0,5.645-2.53,5.645-5.645v-13.29C100,23.885,95.471,19.354,89.902,19.354z
				 M66.129,27.418c-3.555,0-6.451-2.894-6.451-6.451s2.896-6.452,6.451-6.452c3.561,0,6.451,2.895,6.451,6.452
				S69.689,27.418,66.129,27.418z M78.225,74.192c-1.332,0-2.42-1.083-2.42-2.42v-12.66c0.738,0.35,1.551,0.563,2.42,0.563
				c0.871,0,1.684-0.214,2.422-0.563v12.66C80.646,73.109,79.559,74.192,78.225,74.192z M96.775,42.741
				c0,1.334-1.086,2.419-2.42,2.419s-2.42-1.085-2.42-2.419v-0.807V27.418h-3.225v14.517v0.807v29.031c0,1.337-1.086,2.42-2.42,2.42
				s-2.418-1.083-2.418-2.42V54.033V50v-9.258c0-4.871-3.469-8.949-8.068-9.891v-3.434h-2.482c1.197-1.333,2.027-2.996,2.338-4.839
				h14.244c3.791,0,6.873,3.083,6.873,6.872v13.29H96.775z"/>
		</g>
		<g>
			<path d="M59.678,32.258c0-5.338-4.342-9.679-9.676-9.679c-5.338,0-9.68,4.341-9.68,9.679c0,5.336,4.342,9.677,9.68,9.677
				C55.336,41.935,59.678,37.594,59.678,32.258z"/>
			<path d="M57.645,41.935h-7.643h-7.647c-5.565,0-10.098,4.53-10.098,10.097v13.292c0,3.11,2.534,5.645,5.648,5.645
				c0.867,0,1.684-0.216,2.417-0.565v23.952c0,3.114,2.534,5.646,5.645,5.646c1.581,0,3.006-0.657,4.035-1.707
				c1.024,1.05,2.448,1.707,4.03,1.707c3.113,0,5.646-2.531,5.646-5.646V70.402c0.734,0.35,1.549,0.565,2.422,0.565
				c3.109,0,5.641-2.534,5.641-5.645V52.031C67.74,46.465,63.211,41.935,57.645,41.935z"/>
		</g>
	</g>
</g>
</svg>
