<?xml version="1.0" encoding="utf-8"?>
<!-- Generator: Adobe Illustrator 16.0.0, SVG Export Plug-In . SVG Version: 6.00 Build 0)  -->
<!DOCTYPE svg PUBLIC "-//W3C//DTD SVG 1.1//EN" "http://www.w3.org/Graphics/SVG/1.1/DTD/svg11.dtd">
<svg version="1.1" id="Layer_1" xmlns="http://www.w3.org/2000/svg" xmlns:xlink="http://www.w3.org/1999/xlink" x="0px" y="0px"
	 width="100px" height="100px" viewBox="0 0 100 100" enable-background="new 0 0 100 100" xml:space="preserve">
<g>
	<g>
		<path d="M50.009,43.333c6.436,0,11.668-5.235,11.668-11.667C61.677,25.233,56.444,20,50.009,20
			c-6.433,0-11.665,5.234-11.665,11.667C38.344,38.097,43.576,43.333,50.009,43.333z M50.009,23.331
			c4.596,0,8.335,3.739,8.335,8.335c0,4.594-3.739,8.333-8.335,8.333c-4.595,0-8.332-3.74-8.332-8.333
			C41.677,27.07,45.414,23.331,50.009,23.331z"/>
		<path d="M49.716,91.264l25.568-36.929c9.589-12.787,8.204-33.804-2.969-44.973C66.278,3.324,58.253,0,49.716,0
			c-8.537,0-16.562,3.324-22.599,9.362c-11.173,11.168-12.558,32.184-3.009,44.92L49.716,91.264z M29.471,11.717
			C34.88,6.31,42.069,3.331,49.716,3.331s14.836,2.979,20.245,8.386c10.081,10.081,11.323,29.062,2.618,40.666L49.716,85.405
			l-22.9-33.072C18.147,40.779,19.39,21.798,29.471,11.717z"/>
		<path d="M70.205,71.676c-0.916-0.108-1.743,0.546-1.849,1.462c-0.107,0.916,0.546,1.743,1.459,1.849
			c17.526,2.064,26.862,7.624,26.862,10.846c0,4.524-17.754,10.835-46.669,10.835c-28.912,0-46.666-6.311-46.666-10.835
			c0-3.222,9.336-8.781,26.862-10.846c0.916-0.105,1.567-0.936,1.461-1.849c-0.108-0.916-0.936-1.575-1.851-1.462
			C12.267,73.746,0.01,79.564,0.01,85.832C0.01,92.873,17.187,100,50.009,100c32.828,0,50.001-7.127,50.001-14.168
			C100.01,79.564,87.754,73.746,70.205,71.676z"/>
	</g>
</g>
</svg>
