<?xml version="1.0" encoding="utf-8"?>
<!-- Generator: Adobe Illustrator 16.0.0, SVG Export Plug-In . SVG Version: 6.00 Build 0)  -->
<!DOCTYPE svg PUBLIC "-//W3C//DTD SVG 1.1//EN" "http://www.w3.org/Graphics/SVG/1.1/DTD/svg11.dtd">
<svg version="1.1" id="Layer_1" xmlns="http://www.w3.org/2000/svg" xmlns:xlink="http://www.w3.org/1999/xlink" x="0px" y="0px"
	 width="100px" height="100px" viewBox="0 0 100 100" enable-background="new 0 0 100 100" xml:space="preserve">
<rect fill="none" width="100" height="100"/>
<g>
	<g>
		<path d="M99.932,82.306c-0.316-2.402-1.707-4.475-3.805-5.684L71.455,62.418c-3.023-1.74-6.854-1.234-9.322,1.234l-4.857,4.856
			c-1.291,1.293-3.338,1.41-4.758,0.268c-3.833-3.082-7.603-6.475-11.209-10.084c-3.608-3.605-7.001-7.38-10.083-11.21
			c-1.143-1.419-1.029-3.464,0.267-4.758l4.857-4.859c2.465-2.466,2.972-6.299,1.233-9.321L23.376,3.875
			c-1.208-2.101-3.279-3.487-5.681-3.805c-2.407-0.318-4.766,0.482-6.479,2.197L3.894,9.587c-5.11,5.111-5.193,14.458-0.23,26.323
			c4.769,11.407,13.673,23.966,25.067,35.36C40.125,82.665,52.684,91.568,64.09,96.338C69.93,98.78,75.16,100,79.576,100
			c4.553,0,8.242-1.296,10.838-3.893l7.318-7.323C99.447,87.07,100.25,84.71,99.932,82.306L99.932,82.306z M69.84,65.228
			l24.668,14.201c1.221,0.706,2.029,1.905,2.213,3.305c0.154,1.169-0.15,2.323-0.842,3.254L63.094,67.275l1.332-1.334
			C65.855,64.511,68.084,64.215,69.84,65.228L69.84,65.228z M17.271,3.281c1.394,0.184,2.597,0.99,3.299,2.209l14.204,24.67
			c1.012,1.756,0.717,3.981-0.716,5.413l-1.22,1.225L14.021,4.12c0.77-0.57,1.689-0.878,2.65-0.878
			C16.87,3.242,17.068,3.254,17.271,3.281L17.271,3.281z M88.121,93.818c-4.061,4.058-12.363,3.891-22.781-0.466
			c-11.027-4.613-23.215-13.27-34.32-24.371C19.918,57.876,11.262,45.688,6.652,34.66C2.296,24.242,2.125,15.939,6.186,11.879
			l5.435-5.436L30.462,39.17l-1.265,1.265c-2.466,2.465-2.676,6.368-0.498,9.078c3.157,3.923,6.629,7.781,10.317,11.472
			c3.688,3.691,7.55,7.161,11.472,10.316c2.708,2.18,6.614,1.966,9.077-0.5l1.154-1.155l32.83,18.741L88.121,93.818L88.121,93.818z"
			/>
	</g>
</g>
</svg>
