<?xml version="1.0" encoding="utf-8"?>
<!-- Generator: Adobe Illustrator 16.0.0, SVG Export Plug-In . SVG Version: 6.00 Build 0)  -->
<!DOCTYPE svg PUBLIC "-//W3C//DTD SVG 1.1//EN" "http://www.w3.org/Graphics/SVG/1.1/DTD/svg11.dtd">
<svg version="1.1" id="Layer_1" xmlns="http://www.w3.org/2000/svg" xmlns:xlink="http://www.w3.org/1999/xlink" x="0px" y="0px"
	 width="100px" height="100px" viewBox="0 0 100 100" enable-background="new 0 0 100 100" xml:space="preserve">
<rect x="0" y="0" fill="none" width="100" height="100"/>
<g>
	<g>
		<g>
			<path d="M80.964,69.363c-0.396,0-0.794-0.145-1.101-0.438L61.308,51.52c-0.648-0.606-0.683-1.629-0.071-2.277
				c0.608-0.655,1.627-0.684,2.281-0.071l18.552,17.405c0.648,0.609,0.68,1.629,0.071,2.277
				C81.819,69.193,81.396,69.363,80.964,69.363z"/>
			<path d="M19.03,69.363c-0.429,0-0.856-0.17-1.177-0.51c-0.608-0.648-0.577-1.668,0.071-2.277l18.561-17.405
				c0.651-0.605,1.672-0.58,2.28,0.071c0.608,0.648,0.574,1.671-0.071,2.277L20.134,68.926
				C19.824,69.219,19.428,69.363,19.03,69.363z"/>
		</g>
		<path d="M91.938,85.547H8.062C3.617,85.547,0,81.932,0,77.484V22.517c0-4.446,3.617-8.062,8.062-8.062h83.875
			c4.442,0,8.062,3.616,8.062,8.062v54.968C99.999,81.932,96.38,85.547,91.938,85.547z M8.062,17.68c-2.67,0-4.84,2.171-4.84,4.837
			v54.968c0,2.668,2.169,4.84,4.84,4.84h83.875c2.667,0,4.837-2.172,4.837-4.84V22.517c0-2.666-2.17-4.837-4.837-4.837H8.062z"/>
		<path d="M49.998,58.102c-2.144,0-4.288-0.711-5.92-2.133L2.676,19.851c-0.671-0.584-0.742-1.604-0.159-2.278
			c0.592-0.671,1.607-0.73,2.275-0.155l41.408,36.115c2.059,1.799,5.539,1.799,7.598,0l41.352-36.056
			c0.668-0.584,1.684-0.519,2.277,0.154c0.583,0.675,0.518,1.689-0.153,2.276L55.919,55.967
			C54.283,57.391,52.143,58.102,49.998,58.102z"/>
	</g>
</g>
</svg>
